<svg xmlns="http://www.w3.org/2000/svg" width="1300" height="1920" viewBox="0 0 1300 1920"><rect width="1300" height="1920" fill="white"/>
<text x="35" y="27" dominant-baseline="text-before-edge" text-anchor="start" font-family="Microsoft YaHei, Noto Sans CJK SC, sans-serif" font-size="30" font-weight="700" fill="#172B3A">图 2  从一个授权问题逐级展开 KF 检索</text>
<text x="35" y="75" dominant-baseline="text-before-edge" text-anchor="start" font-family="Microsoft YaHei, Noto Sans CJK SC, sans-serif" font-size="23" font-weight="400" fill="#697782">主干自上而下；直答旁支直接收尾，不经过后续检索或生成。</text>
<rect x="120" y="125" width="720" height="95" rx="8" fill="#F0F8F4" stroke="#267862" stroke-width="1.5"/>
<text x="480.0" y="142.5" dominant-baseline="text-before-edge" text-anchor="middle" font-family="Microsoft YaHei, Noto Sans CJK SC, sans-serif" font-size="27" font-weight="700" fill="#172B3A">起点  授权问题进入 N6 API 与 QAService</text>
<text x="480.0" y="177.5" dominant-baseline="text-before-edge" text-anchor="middle" font-family="Microsoft YaHei, Noto Sans CJK SC, sans-serif" font-size="23" font-weight="400" fill="#172B3A">知识门面校验身份；映射平台会话与 KF 会话</text>
<rect x="120" y="265" width="720" height="100" rx="8" fill="#F0F8F4" stroke="#267862" stroke-width="1.5"/>
<text x="480.0" y="285.0" dominant-baseline="text-before-edge" text-anchor="middle" font-family="Microsoft YaHei, Noto Sans CJK SC, sans-serif" font-size="27" font-weight="700" fill="#172B3A">K0 创建请求上下文</text>
<text x="480.0" y="320.0" dominant-baseline="text-before-edge" text-anchor="middle" font-family="Microsoft YaHei, Noto Sans CJK SC, sans-serif" font-size="23" font-weight="400" fill="#172B3A">场景 数据权限 追踪 ID；固定本次知识版本</text>
<polyline points="480,220 480,265" fill="none" stroke="#267862" stroke-width="2"/>
<polygon points="480,265 474.5,255.47372055837118 485.5,255.47372055837118" fill="#267862"/>
<rect x="120" y="410" width="720" height="110" rx="8" fill="#F0F8F4" stroke="#267862" stroke-width="1.5"/>
<text x="480.0" y="435.0" dominant-baseline="text-before-edge" text-anchor="middle" font-family="Microsoft YaHei, Noto Sans CJK SC, sans-serif" font-size="27" font-weight="700" fill="#172B3A">K1 低成本查询路由</text>
<text x="480.0" y="470.0" dominant-baseline="text-before-edge" text-anchor="middle" font-family="Microsoft YaHei, Noto Sans CJK SC, sans-serif" font-size="23" font-weight="400" fill="#172B3A">确定性直答 / 边界 / FAQ 精确探测</text>
<polyline points="480,365 480,410" fill="none" stroke="#267862" stroke-width="2"/>
<polygon points="480,410 474.5,400.47372055837116 485.5,400.47372055837116" fill="#267862"/>
<rect x="120" y="655" width="720" height="110" rx="8" fill="#F0F8F4" stroke="#267862" stroke-width="1.5"/>
<text x="480.0" y="680.0" dominant-baseline="text-before-edge" text-anchor="middle" font-family="Microsoft YaHei, Noto Sans CJK SC, sans-serif" font-size="27" font-weight="700" fill="#172B3A">K2 准备检索</text>
<text x="480.0" y="715.0" dominant-baseline="text-before-edge" text-anchor="middle" font-family="Microsoft YaHei, Noto Sans CJK SC, sans-serif" font-size="23" font-weight="400" fill="#172B3A">历史与意图 → 按需改写 → 检索计划与 Prompt</text>
<polyline points="480,520 480,655" fill="none" stroke="#267862" stroke-width="2"/>
<polygon points="480,655 474.5,645.4737205583712 485.5,645.4737205583712" fill="#267862"/>
<rect x="564.5" y="572.5" width="81.0" height="30" fill="white"/>
<text x="605" y="574.5" dominant-baseline="text-before-edge" text-anchor="middle" font-family="Microsoft YaHei, Noto Sans CJK SC, sans-serif" font-size="23" font-weight="400" fill="#267862">未直答</text>
<rect x="120" y="810" width="720" height="110" rx="8" fill="#F0F8F4" stroke="#267862" stroke-width="1.5"/>
<text x="480.0" y="835.0" dominant-baseline="text-before-edge" text-anchor="middle" font-family="Microsoft YaHei, Noto Sans CJK SC, sans-serif" font-size="27" font-weight="700" fill="#172B3A">K3 FAQ 混合检索</text>
<text x="480.0" y="870.0" dominant-baseline="text-before-edge" text-anchor="middle" font-family="Microsoft YaHei, Noto Sans CJK SC, sans-serif" font-size="23" font-weight="400" fill="#172B3A">Embedding → Milvus Dense + BM25 → 按计划重排</text>
<polyline points="480,765 480,810" fill="none" stroke="#267862" stroke-width="2"/>
<polygon points="480,810 474.5,800.4737205583712 485.5,800.4737205583712" fill="#267862"/>
<rect x="120" y="1060" width="720" height="110" rx="8" fill="#F0F8F4" stroke="#267862" stroke-width="1.5"/>
<text x="480.0" y="1085.0" dominant-baseline="text-before-edge" text-anchor="middle" font-family="Microsoft YaHei, Noto Sans CJK SC, sans-serif" font-size="27" font-weight="700" fill="#172B3A">K4 文档混合检索</text>
<text x="480.0" y="1120.0" dominant-baseline="text-before-edge" text-anchor="middle" font-family="Microsoft YaHei, Noto Sans CJK SC, sans-serif" font-size="23" font-weight="400" fill="#172B3A">授权查询 → 文档候选 → 按计划重排</text>
<polyline points="480,920 480,1060" fill="none" stroke="#267862" stroke-width="2"/>
<polygon points="480,1060 474.5,1050.4737205583713 485.5,1050.4737205583713" fill="#267862"/>
<rect x="537.76171875" y="975.0" width="134.4765625" height="30" fill="white"/>
<text x="605" y="977.0" dominant-baseline="text-before-edge" text-anchor="middle" font-family="Microsoft YaHei, Noto Sans CJK SC, sans-serif" font-size="23" font-weight="400" fill="#267862">FAQ 未直出</text>
<rect x="120" y="1215" width="720" height="110" rx="8" fill="#F0F8F4" stroke="#267862" stroke-width="1.5"/>
<text x="480.0" y="1240.0" dominant-baseline="text-before-edge" text-anchor="middle" font-family="Microsoft YaHei, Noto Sans CJK SC, sans-serif" font-size="27" font-weight="700" fill="#172B3A">K5 构建上下文</text>
<text x="480.0" y="1275.0" dominant-baseline="text-before-edge" text-anchor="middle" font-family="Microsoft YaHei, Noto Sans CJK SC, sans-serif" font-size="23" font-weight="400" fill="#172B3A">合并证据 筛选片段 控制预算 编排来源编号</text>
<polyline points="480,1170 480,1215" fill="none" stroke="#267862" stroke-width="2"/>
<polygon points="480,1215 474.5,1205.4737205583713 485.5,1205.4737205583713" fill="#267862"/>
<rect x="120" y="1460" width="720" height="115" rx="8" fill="#F0F8F4" stroke="#267862" stroke-width="1.5"/>
<text x="480.0" y="1487.5" dominant-baseline="text-before-edge" text-anchor="middle" font-family="Microsoft YaHei, Noto Sans CJK SC, sans-serif" font-size="27" font-weight="700" fill="#172B3A">K6 流式生成与后处理</text>
<text x="480.0" y="1522.5" dominant-baseline="text-before-edge" text-anchor="middle" font-family="Microsoft YaHei, Noto Sans CJK SC, sans-serif" font-size="23" font-weight="400" fill="#172B3A">Prompt + LLM → 引用补齐 → 生成后核验</text>
<polyline points="480,1325 480,1460" fill="none" stroke="#267862" stroke-width="2"/>
<polygon points="480,1460 474.5,1450.4737205583713 485.5,1450.4737205583713" fill="#267862"/>
<rect x="553.0" y="1377.5" width="104.0" height="30" fill="white"/>
<text x="605" y="1379.5" dominant-baseline="text-before-edge" text-anchor="middle" font-family="Microsoft YaHei, Noto Sans CJK SC, sans-serif" font-size="23" font-weight="400" fill="#267862">证据充分</text>
<rect x="120" y="1620" width="720" height="130" rx="8" fill="#F0F8F4" stroke="#267862" stroke-width="1.5"/>
<text x="480.0" y="1655.0" dominant-baseline="text-before-edge" text-anchor="middle" font-family="Microsoft YaHei, Noto Sans CJK SC, sans-serif" font-size="27" font-weight="700" fill="#172B3A">K7 收尾并返回平台</text>
<text x="480.0" y="1690.0" dominant-baseline="text-before-edge" text-anchor="middle" font-family="Microsoft YaHei, Noto Sans CJK SC, sans-serif" font-size="23" font-weight="400" fill="#172B3A">保存 KF 历史与 Trace；返回答案 来源 版本与诊断</text>
<polyline points="480,1575 480,1620" fill="none" stroke="#267862" stroke-width="2"/>
<polygon points="480,1620 474.5,1610.4737205583713 485.5,1610.4737205583713" fill="#267862"/>
<polyline points="840,465.0 950,465.0" fill="none" stroke="#697782" stroke-width="2"/>
<polygon points="950,465.0 940.4737205583712,470.5 940.4737205583712,459.5" fill="#697782"/>
<rect x="950" y="410" width="315" height="110" rx="8" fill="#F5F7F9" stroke="#697782" stroke-width="1.5"/>
<text x="1107.5" y="435.0" dominant-baseline="text-before-edge" text-anchor="middle" font-family="Microsoft YaHei, Noto Sans CJK SC, sans-serif" font-size="27" font-weight="700" fill="#172B3A">可直接回答</text>
<text x="1107.5" y="470.0" dominant-baseline="text-before-edge" text-anchor="middle" font-family="Microsoft YaHei, Noto Sans CJK SC, sans-serif" font-size="23" font-weight="400" fill="#172B3A">确定性回答或精确 FAQ</text>
<polyline points="1107.5,520 1107.5,545" fill="none" stroke="#697782" stroke-width="2"/>
<polygon points="1107.5,545 1102.0,535.4737205583712 1113.0,535.4737205583712" fill="#697782"/>
<rect x="950" y="545" width="315" height="85" rx="8" fill="#F5F7F9" stroke="#697782" stroke-width="1.5"/>
<text x="1107.5" y="573.0" dominant-baseline="text-before-edge" text-anchor="middle" font-family="Microsoft YaHei, Noto Sans CJK SC, sans-serif" font-size="27" font-weight="700" fill="#172B3A">K7 保存并返回</text>
<polyline points="840,865.0 950,865.0" fill="none" stroke="#697782" stroke-width="2"/>
<polygon points="950,865.0 940.4737205583712,870.5 940.4737205583712,859.5" fill="#697782"/>
<rect x="950" y="810" width="315" height="110" rx="8" fill="#F5F7F9" stroke="#697782" stroke-width="1.5"/>
<text x="1107.5" y="835.0" dominant-baseline="text-before-edge" text-anchor="middle" font-family="Microsoft YaHei, Noto Sans CJK SC, sans-serif" font-size="27" font-weight="700" fill="#172B3A">FAQ 满足直出条件</text>
<text x="1107.5" y="870.0" dominant-baseline="text-before-edge" text-anchor="middle" font-family="Microsoft YaHei, Noto Sans CJK SC, sans-serif" font-size="23" font-weight="400" fill="#172B3A">返回标准答案与来源</text>
<polyline points="1107.5,920 1107.5,945" fill="none" stroke="#697782" stroke-width="2"/>
<polygon points="1107.5,945 1102.0,935.4737205583712 1113.0,935.4737205583712" fill="#697782"/>
<rect x="950" y="945" width="315" height="85" rx="8" fill="#F5F7F9" stroke="#697782" stroke-width="1.5"/>
<text x="1107.5" y="973.0" dominant-baseline="text-before-edge" text-anchor="middle" font-family="Microsoft YaHei, Noto Sans CJK SC, sans-serif" font-size="27" font-weight="700" fill="#172B3A">K7 保存并返回</text>
<polyline points="840,1270.0 950,1270.0" fill="none" stroke="#697782" stroke-width="2"/>
<polygon points="950,1270.0 940.4737205583712,1275.5 940.4737205583712,1264.5" fill="#697782"/>
<rect x="950" y="1215" width="315" height="110" rx="8" fill="#F5F7F9" stroke="#697782" stroke-width="1.5"/>
<text x="1107.5" y="1240.0" dominant-baseline="text-before-edge" text-anchor="middle" font-family="Microsoft YaHei, Noto Sans CJK SC, sans-serif" font-size="27" font-weight="700" fill="#172B3A">证据不足</text>
<text x="1107.5" y="1275.0" dominant-baseline="text-before-edge" text-anchor="middle" font-family="Microsoft YaHei, Noto Sans CJK SC, sans-serif" font-size="23" font-weight="400" fill="#172B3A">返回信息不足提示</text>
<polyline points="1107.5,1325 1107.5,1350" fill="none" stroke="#697782" stroke-width="2"/>
<polygon points="1107.5,1350 1102.0,1340.4737205583713 1113.0,1340.4737205583713" fill="#697782"/>
<rect x="950" y="1350" width="315" height="85" rx="8" fill="#F5F7F9" stroke="#697782" stroke-width="1.5"/>
<text x="1107.5" y="1378.0" dominant-baseline="text-before-edge" text-anchor="middle" font-family="Microsoft YaHei, Noto Sans CJK SC, sans-serif" font-size="27" font-weight="700" fill="#172B3A">K7 保存并返回</text>
<polyline points="480,1750 480,1795" fill="none" stroke="#267862" stroke-width="2"/>
<polygon points="480,1795 474.5,1785.4737205583713 485.5,1785.4737205583713" fill="#267862"/>
<rect x="120" y="1795" width="720" height="80" rx="8" fill="#F0F6FA" stroke="#28668E" stroke-width="1.5"/>
<text x="480.0" y="1805.0" dominant-baseline="text-before-edge" text-anchor="middle" font-family="Microsoft YaHei, Noto Sans CJK SC, sans-serif" font-size="27" font-weight="700" fill="#172B3A">平台 N4 → N3 → 客户端</text>
<text x="480.0" y="1840.0" dominant-baseline="text-before-edge" text-anchor="middle" font-family="Microsoft YaHei, Noto Sans CJK SC, sans-serif" font-size="23" font-weight="400" fill="#172B3A">正式消息由 N3 保存；最终成功与失败状态可追溯</text>
<text x="1040" y="1800" dominant-baseline="text-before-edge" text-anchor="middle" font-family="Microsoft YaHei, Noto Sans CJK SC, sans-serif" font-size="23" font-weight="400" fill="#697782">K3 / K4 使用同一</text>
<text x="1040" y="1836" dominant-baseline="text-before-edge" text-anchor="middle" font-family="Microsoft YaHei, Noto Sans CJK SC, sans-serif" font-size="23" font-weight="400" fill="#697782">权限与版本过滤条件</text>
<text x="650" y="1888" dominant-baseline="text-before-edge" text-anchor="middle" font-family="Microsoft YaHei, Noto Sans CJK SC, sans-serif" font-size="22" font-weight="400" fill="#697782">旁支重复的 K7 表示同一收尾步骤；任一步异常统一返回 error，平台保存失败状态。</text>
</svg>